<?xml version="1.0" encoding="iso-8859-1"?>
<!-- Uploaded to: SVG Repo, www.svgrepo.com, Generator: SVG Repo Mixer Tools -->
<svg height="800px" width="800px" version="1.1" id="Layer_1" xmlns="http://www.w3.org/2000/svg" xmlns:xlink="http://www.w3.org/1999/xlink" 
	 viewBox="0 0 464 464" xml:space="preserve">
<g>
	<polyline style="fill:#A9D856;" points="288.774,8.851 232,42.807 175.227,8.851 216.44,175.868 232,122.672 247.561,175.868 
		288.774,8.851 	"/>
	<polygon style="fill:#B7ED62;" points="207.239,92.645 232.568,0 257.898,92.645 	"/>
	<polyline style="fill:#B7ED62;" points="290.134,51.42 232,84.831 173.867,51.42 213.872,207.205 232,147.656 250.128,207.205 
		290.134,51.42 	"/>
	<polygon style="fill:#A9D856;" points="207.239,126.162 232.568,77.021 257.898,126.162 	"/>
	<polyline style="fill:#A9D856;" points="303.01,95.199 232,120.785 160.989,95.199 209.857,214.498 232,168.895 254.143,214.498 
		303.01,95.199 	"/>
	<polyline style="fill:#B7ED62;" points="317.781,143.6 232,156.514 146.22,143.6 203.028,201.545 232,176.616 260.972,201.545 
		317.781,143.6 	"/>
	<polygon style="fill:#B7ED62;" points="207.239,166.609 232.568,117.468 257.898,166.609 	"/>
	<path style="fill:#FFDE55;" d="M342.211,285.626v68.163c0,55.547-41.097,101.506-94.546,109.096
		c-5.026,0.728-10.164,1.104-15.389,1.114H232c-5.502,0-10.904-0.397-16.196-1.192c-13.369-1.956-25.974-6.33-37.319-12.661
		c-3.734-2.077-7.347-4.364-10.804-6.861c-9.634-6.926-18.097-15.378-25.045-24.99c-2.508-3.457-4.807-7.058-6.882-10.793
		c-6.363-11.368-10.76-23.961-12.749-37.351c-0.807-5.336-1.216-10.804-1.216-16.362v-68.163
		c0-60.773,49.196-110.068,109.936-110.212H232c5.324,0,10.561,0.376,15.687,1.126c0.165,0.012,0.342,0.045,0.508,0.066
		c13.367,1.956,25.972,6.332,37.319,12.661c3.734,2.079,7.346,4.354,10.804,6.861c4.85,3.469,9.39,7.347,13.61,11.567
		c4.154,4.153,7.988,8.638,11.435,13.422c2.508,3.457,4.805,7.06,6.882,10.793c6.363,11.368,10.76,23.963,12.749,37.353
		C341.802,274.6,342.211,280.068,342.211,285.626"/>
	<path style="fill:#E5C74A;" d="M248.191,176.605l-126.4,126.923v-17.725l109.936-110.391H232
		C237.499,175.413,242.908,175.81,248.191,176.605"/>
	<path style="fill:#E5C74A;" d="M296.318,196.125L123.007,370.152c-0.807-5.34-1.216-10.804-1.216-16.361v-0.124l163.723-164.404
		C289.252,191.342,292.865,193.626,296.318,196.125"/>
	<path style="fill:#E5C74A;" d="M328.244,231.915L142.64,418.292c-2.51-3.453-4.805-7.055-6.885-10.792L321.36,221.121
		C323.871,224.575,326.166,228.176,328.244,231.915"/>
	<path style="fill:#E5C74A;" d="M342.209,285.622v0.124L178.487,450.15c-3.738-2.08-7.351-4.363-10.805-6.862l173.31-174.028
		C341.799,274.6,342.209,280.065,342.209,285.622"/>
	<path style="fill:#E5C74A;" d="M342.209,335.886v17.724L232.272,464H232c-5.5,0-10.907-0.397-16.19-1.192L342.209,335.886"/>
	<path style="fill:#E5C74A;" d="M215.81,176.605l126.398,126.923v-17.725l-109.936-110.39H232
		C226.501,175.413,221.093,175.81,215.81,176.605"/>
	<path style="fill:#E5C74A;" d="M167.681,196.125l173.311,174.027c0.807-5.34,1.216-10.804,1.216-16.361v-0.124L178.487,189.263
		C174.749,191.342,171.136,193.626,167.681,196.125"/>
	<path style="fill:#E5C74A;" d="M135.755,231.915L321.36,418.292c2.511-3.453,4.807-7.055,6.885-10.792L142.64,221.121
		C140.13,224.575,137.835,228.176,135.755,231.915"/>
	<path style="fill:#E5C74A;" d="M121.791,285.622v0.124L285.514,450.15c3.738-2.08,7.351-4.363,10.804-6.862L123.007,269.26
		C122.2,274.6,121.791,280.065,121.791,285.622"/>
	<path style="fill:#E5C74A;" d="M121.791,335.886v17.724L231.727,464H232c5.498,0,10.907-0.397,16.19-1.192L121.791,335.886"/>
	<path style="fill:#E9E9E9;" d="M324.404,413.879c-0.003,0.005-0.005,0.008-0.009,0.013
		C324.398,413.888,324.4,413.884,324.404,413.879 M324.561,413.637c-0.003,0.005-0.01,0.016-0.014,0.021
		C324.552,413.65,324.556,413.645,324.561,413.637 M324.722,413.388c-0.01,0.016-0.016,0.025-0.026,0.041
		C324.705,413.414,324.712,413.403,324.722,413.388 M324.873,413.153c-0.005,0.008-0.013,0.02-0.018,0.028
		C324.861,413.171,324.866,413.164,324.873,413.153 M325.026,412.914c-0.005,0.008-0.011,0.017-0.016,0.025
		C325.014,412.932,325.021,412.921,325.026,412.914 M325.175,412.679c-0.002,0.003-0.007,0.012-0.009,0.014
		C325.169,412.688,325.171,412.684,325.175,412.679 M325.331,412.431c-0.005,0.008-0.01,0.017-0.015,0.024
		C325.321,412.448,325.326,412.438,325.331,412.431 M326.516,410.506c-0.006,0.011-0.012,0.021-0.019,0.031
		C326.503,410.527,326.51,410.516,326.516,410.506 M326.666,410.256c-0.01,0.017-0.019,0.032-0.029,0.048
		C326.648,410.286,326.655,410.274,326.666,410.256 M326.818,410c-0.013,0.021-0.028,0.048-0.041,0.069
		C326.791,410.047,326.805,410.023,326.818,410 M326.966,409.75c-0.015,0.024-0.029,0.05-0.044,0.074
		C326.937,409.799,326.951,409.776,326.966,409.75 M327.117,409.495c-0.016,0.027-0.033,0.056-0.049,0.083
		C327.084,409.551,327.1,409.523,327.117,409.495 M327.261,409.248c-0.014,0.025-0.031,0.054-0.046,0.078
		C327.231,409.3,327.246,409.273,327.261,409.248 M327.41,408.993c-0.016,0.027-0.032,0.056-0.048,0.083
		C327.376,409.05,327.395,409.019,327.41,408.993 M327.554,408.743c-0.016,0.027-0.031,0.054-0.047,0.081
		C327.524,408.796,327.538,408.771,327.554,408.743 M327.701,408.488c-0.016,0.027-0.032,0.056-0.048,0.083
		C327.669,408.543,327.684,408.516,327.701,408.488 M327.847,408.232c-0.017,0.03-0.033,0.059-0.051,0.089
		C327.812,408.292,327.831,408.26,327.847,408.232 M327.989,407.981c-0.016,0.028-0.032,0.057-0.048,0.084
		C327.956,408.041,327.974,408.007,327.989,407.981 M328.129,407.733c-0.016,0.028-0.029,0.051-0.044,0.079
		C328.101,407.784,328.113,407.762,328.129,407.733 M328.507,407.056c-0.017,0.031-0.034,0.061-0.051,0.091
		C328.473,407.117,328.489,407.087,328.507,407.056 M328.648,406.8c-0.015,0.028-0.034,0.063-0.05,0.09
		C328.614,406.861,328.632,406.829,328.648,406.8 M328.789,406.542c-0.018,0.033-0.037,0.067-0.055,0.101
		C328.751,406.612,328.772,406.574,328.789,406.542 M328.929,406.285c-0.018,0.034-0.036,0.066-0.054,0.1
		C328.892,406.353,328.912,406.316,328.929,406.285 M329.07,406.025c-0.02,0.036-0.039,0.071-0.058,0.108
		C329.031,406.096,329.05,406.061,329.07,406.025 M329.212,405.761c-0.021,0.039-0.042,0.079-0.063,0.118
		C329.17,405.839,329.191,405.8,329.212,405.761 M329.35,405.501c-0.022,0.042-0.044,0.082-0.066,0.124
		C329.307,405.583,329.328,405.543,329.35,405.501 M329.489,405.241c-0.022,0.042-0.042,0.079-0.064,0.121
		C329.445,405.323,329.468,405.28,329.489,405.241 M329.626,404.98c-0.022,0.042-0.043,0.083-0.066,0.125
		C329.581,405.065,329.605,405.02,329.626,404.98 M329.764,404.717c-0.022,0.042-0.043,0.083-0.065,0.125
		C329.721,404.799,329.742,404.759,329.764,404.717 M329.898,404.458c-0.022,0.042-0.044,0.084-0.065,0.126
		C329.855,404.542,329.876,404.5,329.898,404.458 M330.034,404.195c-0.022,0.042-0.041,0.079-0.063,0.122
		C329.994,404.274,330.013,404.238,330.034,404.195 M330.176,403.919c-0.023,0.045-0.05,0.097-0.073,0.142
		C330.127,404.016,330.153,403.964,330.176,403.919 M330.336,403.605c-0.032,0.062-0.066,0.13-0.098,0.192
		C330.271,403.733,330.304,403.668,330.336,403.605 M330.502,403.277c-0.044,0.088-0.087,0.173-0.132,0.261
		C330.415,403.45,330.458,403.365,330.502,403.277 M330.635,403.013c-0.023,0.045-0.048,0.096-0.071,0.141
		C330.587,403.108,330.612,403.058,330.635,403.013 M330.766,402.75c-0.021,0.042-0.043,0.087-0.065,0.129
		C330.722,402.837,330.744,402.792,330.766,402.75 M330.898,402.481c-0.022,0.046-0.046,0.092-0.068,0.138
		C330.854,402.571,330.875,402.53,330.898,402.481 M331.028,402.219c-0.022,0.046-0.044,0.09-0.067,0.136
		C330.983,402.31,331.005,402.264,331.028,402.219 M331.16,401.948c-0.024,0.049-0.045,0.092-0.068,0.141
		C331.113,402.043,331.138,401.994,331.16,401.948 M331.29,401.68c-0.024,0.049-0.048,0.1-0.072,0.148
		C331.241,401.781,331.266,401.729,331.29,401.68 M331.42,401.411c-0.023,0.048-0.05,0.104-0.074,0.153
		C331.371,401.513,331.395,401.461,331.42,401.411 M331.546,401.146c-0.023,0.049-0.048,0.102-0.072,0.15
		C331.499,401.245,331.522,401.196,331.546,401.146 M331.675,400.874c-0.025,0.052-0.047,0.1-0.072,0.152
		C331.626,400.978,331.652,400.922,331.675,400.874 M331.804,400.602c-0.024,0.052-0.05,0.106-0.074,0.158
		C331.753,400.708,331.78,400.653,331.804,400.602 M331.936,400.319c-0.027,0.058-0.055,0.118-0.082,0.175
		C331.882,400.435,331.908,400.378,331.936,400.319 M332.063,400.046c-0.027,0.058-0.057,0.123-0.083,0.18
		C332.007,400.167,332.035,400.105,332.063,400.046 M332.201,399.746c-0.032,0.069-0.065,0.141-0.097,0.21
		C332.137,399.886,332.169,399.816,332.201,399.746 M332.601,398.866c-0.123,0.273-0.248,0.55-0.373,0.822
		C332.354,399.414,332.477,399.141,332.601,398.866 M332.723,398.593c-0.034,0.076-0.068,0.151-0.101,0.227
		C332.656,398.744,332.689,398.669,332.723,398.593 M332.844,398.319c-0.031,0.07-0.063,0.143-0.094,0.212
		C332.782,398.461,332.813,398.391,332.844,398.319 M332.964,398.048c-0.029,0.067-0.057,0.13-0.087,0.197
		C332.906,398.18,332.935,398.114,332.964,398.048 M333.082,397.779c-0.027,0.062-0.053,0.123-0.08,0.184
		C333.028,397.902,333.055,397.839,333.082,397.779 M333.202,397.501c-0.025,0.058-0.052,0.12-0.077,0.178
		C333.151,397.619,333.176,397.561,333.202,397.501 M333.321,397.225c-0.028,0.064-0.053,0.123-0.08,0.187
		C333.268,397.349,333.294,397.289,333.321,397.225 M333.439,396.95c-0.026,0.062-0.052,0.121-0.078,0.182
		C333.387,397.072,333.413,397.01,333.439,396.95 M333.556,396.673c-0.026,0.062-0.053,0.125-0.079,0.187
		C333.504,396.796,333.529,396.736,333.556,396.673 M333.676,396.389c-0.027,0.065-0.054,0.128-0.081,0.193
		C333.622,396.518,333.649,396.452,333.676,396.389 M333.794,396.106c-0.028,0.067-0.057,0.136-0.085,0.204
		C333.738,396.241,333.766,396.175,333.794,396.106 M333.918,395.807c-0.032,0.077-0.061,0.149-0.093,0.226
		C333.856,395.958,333.887,395.881,333.918,395.807 M334.039,395.514c-0.034,0.083-0.067,0.163-0.101,0.245
		C333.971,395.679,334.006,395.595,334.039,395.514 M334.395,394.633c-0.113,0.282-0.227,0.566-0.342,0.847
		C334.167,395.2,334.283,394.914,334.395,394.633 M334.504,394.358c-0.035,0.089-0.068,0.171-0.103,0.26
		C334.435,394.532,334.47,394.445,334.504,394.358 M334.616,394.075c-0.029,0.075-0.059,0.151-0.089,0.225
		C334.557,394.225,334.586,394.15,334.616,394.075 M334.723,393.801c-0.028,0.072-0.056,0.144-0.084,0.215
		C334.667,393.944,334.695,393.874,334.723,393.801 M334.832,393.52c-0.025,0.066-0.052,0.134-0.077,0.199
		C334.781,393.652,334.806,393.587,334.832,393.52 M334.939,393.243c-0.024,0.063-0.05,0.13-0.074,0.193
		C334.889,393.372,334.914,393.307,334.939,393.243 M335.047,392.958c-0.024,0.063-0.05,0.13-0.074,0.193
		C334.998,393.087,335.023,393.023,335.047,392.958 M335.154,392.678c-0.024,0.063-0.049,0.13-0.073,0.192
		C335.105,392.806,335.129,392.743,335.154,392.678 M335.263,392.386c-0.026,0.069-0.051,0.136-0.077,0.205
		C335.212,392.523,335.238,392.454,335.263,392.386 M335.369,392.101c-0.026,0.069-0.053,0.142-0.079,0.211
		C335.317,392.242,335.343,392.171,335.369,392.101 M335.482,391.797c-0.029,0.078-0.057,0.155-0.086,0.233
		C335.425,391.951,335.453,391.876,335.482,391.797 M335.594,391.49c-0.032,0.087-0.064,0.175-0.096,0.262
		C335.53,391.665,335.562,391.577,335.594,391.49 M336.114,390.029c-0.168,0.482-0.339,0.962-0.513,1.441
		C335.776,390.991,335.946,390.512,336.114,390.029 M336.212,389.747c-0.028,0.082-0.059,0.17-0.088,0.252
		C336.154,389.915,336.182,389.832,336.212,389.747 M336.31,389.462c-0.026,0.076-0.052,0.151-0.078,0.227
		C336.257,389.616,336.284,389.537,336.31,389.462 M336.406,389.178c-0.025,0.073-0.05,0.146-0.074,0.219
		C336.357,389.322,336.381,389.251,336.406,389.178 M336.503,388.893c-0.024,0.07-0.047,0.139-0.071,0.209
		C336.455,389.034,336.48,388.961,336.503,388.893 M336.598,388.607c-0.022,0.067-0.046,0.139-0.069,0.206
		C336.552,388.745,336.575,388.676,336.598,388.607 M336.694,388.316c-0.022,0.067-0.046,0.138-0.068,0.205
		C336.649,388.453,336.672,388.385,336.694,388.316 M336.79,388.023c-0.024,0.074-0.047,0.142-0.071,0.215
		C336.743,388.167,336.767,388.095,336.79,388.023 M336.888,387.723c-0.025,0.077-0.049,0.152-0.074,0.229
		C336.838,387.876,336.864,387.797,336.888,387.723 M336.982,387.429c-0.026,0.08-0.051,0.159-0.077,0.239
		C336.931,387.59,336.958,387.507,336.982,387.429 M337.084,387.11c-0.028,0.089-0.057,0.178-0.085,0.267
		C337.028,387.288,337.056,387.199,337.084,387.11 M337.543,385.625c-0.148,0.491-0.299,0.98-0.453,1.468
		C337.245,386.604,337.395,386.117,337.543,385.625 M337.63,385.334c-0.026,0.086-0.051,0.17-0.077,0.256
		C337.579,385.507,337.605,385.418,337.63,385.334 M337.715,385.05c-0.023,0.077-0.046,0.154-0.069,0.231
		C337.668,385.206,337.692,385.125,337.715,385.05 M337.8,384.757c-0.021,0.071-0.042,0.143-0.063,0.214
		C337.759,384.899,337.779,384.83,337.8,384.757 M337.885,384.465c-0.021,0.071-0.041,0.143-0.062,0.214
		C337.843,384.61,337.865,384.535,337.885,384.465 M337.97,384.171c-0.02,0.071-0.041,0.144-0.062,0.215
		C337.929,384.314,337.949,384.244,337.97,384.171 M338.052,383.884c-0.02,0.071-0.039,0.136-0.059,0.208
		C338.013,384.022,338.032,383.954,338.052,383.884 M338.136,383.584c-0.02,0.071-0.039,0.14-0.059,0.211
		C338.096,383.726,338.117,383.654,338.136,383.584 M338.22,383.282c-0.021,0.075-0.042,0.149-0.062,0.224
		C338.179,383.43,338.199,383.358,338.22,383.282 M338.306,382.97c-0.022,0.081-0.046,0.167-0.068,0.247
		C338.261,383.135,338.284,383.051,338.306,382.97 M338.392,382.654c-0.025,0.091-0.049,0.181-0.074,0.272
		C338.343,382.835,338.368,382.745,338.392,382.654 M338.715,381.435c-0.104,0.402-0.209,0.798-0.317,1.198
		C338.506,382.235,338.612,381.835,338.715,381.435 M338.79,381.141c-0.025,0.097-0.049,0.192-0.074,0.29
		C338.741,381.333,338.766,381.238,338.79,381.141 M338.865,380.845c-0.022,0.088-0.043,0.171-0.066,0.259
		C338.821,381.019,338.844,380.931,338.865,380.845 M338.938,380.555c-0.02,0.079-0.039,0.157-0.059,0.236
		C338.898,380.714,338.919,380.631,338.938,380.555 M339.012,380.259c-0.019,0.076-0.036,0.144-0.054,0.219
		C338.976,380.404,338.993,380.333,339.012,380.259 M339.085,379.959c-0.018,0.072-0.036,0.147-0.054,0.219
		C339.05,380.104,339.067,380.033,339.085,379.959 M339.157,379.663c-0.018,0.076-0.035,0.146-0.053,0.222
		C339.121,379.811,339.139,379.737,339.157,379.663 M339.228,379.364c-0.017,0.073-0.035,0.145-0.052,0.218
		C339.194,379.508,339.211,379.438,339.228,379.364 M339.297,379.075c-0.016,0.07-0.033,0.14-0.049,0.21
		C339.264,379.213,339.28,379.146,339.297,379.075 M339.368,378.767c-0.016,0.07-0.033,0.142-0.049,0.212
		C339.336,378.908,339.352,378.838,339.368,378.767 M339.44,378.456c-0.018,0.079-0.035,0.153-0.053,0.232
		C339.405,378.608,339.422,378.536,339.44,378.456 M339.515,378.126c-0.019,0.086-0.04,0.179-0.06,0.265
		C339.474,378.305,339.495,378.213,339.515,378.126 M339.788,376.882c-0.086,0.405-0.176,0.812-0.266,1.215
		C339.613,377.692,339.701,377.288,339.788,376.882 M339.849,376.59c-0.019,0.093-0.039,0.187-0.059,0.279
		C339.81,376.777,339.83,376.683,339.849,376.59 M339.913,376.287c-0.016,0.077-0.032,0.152-0.048,0.229
		C339.882,376.438,339.897,376.364,339.913,376.287 M339.974,375.99c-0.015,0.074-0.031,0.15-0.046,0.224
		C339.943,376.139,339.959,376.065,339.974,375.99 M340.035,375.688c-0.014,0.07-0.029,0.144-0.043,0.214
		C340.006,375.833,340.021,375.757,340.035,375.688 M340.095,375.391c-0.013,0.067-0.028,0.14-0.041,0.207
		C340.067,375.529,340.081,375.46,340.095,375.391 M340.155,375.086c-0.014,0.07-0.027,0.138-0.041,0.208
		C340.128,375.225,340.141,375.155,340.155,375.086 M340.213,374.789c-0.013,0.067-0.026,0.137-0.04,0.204
		C340.186,374.927,340.2,374.855,340.213,374.789 M340.27,374.489c-0.013,0.067-0.025,0.132-0.038,0.199
		C340.245,374.619,340.257,374.558,340.27,374.489 M340.327,374.188c-0.012,0.064-0.025,0.131-0.037,0.195
		C340.303,374.317,340.314,374.254,340.327,374.188 M340.386,373.871c-0.013,0.071-0.026,0.142-0.039,0.213
		C340.36,374.011,340.372,373.943,340.386,373.871 M340.445,373.546c-0.015,0.081-0.028,0.158-0.043,0.238
		C340.417,373.703,340.43,373.628,340.445,373.546 M340.669,372.264c-0.069,0.408-0.14,0.816-0.213,1.222
		C340.53,373.078,340.6,372.673,340.669,372.264 M340.72,371.963c-0.013,0.081-0.026,0.159-0.04,0.24
		C340.693,372.124,340.706,372.042,340.72,371.963 M340.769,371.662c-0.012,0.071-0.023,0.142-0.035,0.213
		C340.746,371.805,340.758,371.731,340.769,371.662 M340.819,371.355c-0.011,0.068-0.022,0.136-0.033,0.204
		C340.797,371.489,340.808,371.425,340.819,371.355 M340.867,371.053c-0.011,0.068-0.021,0.136-0.032,0.204
		C340.846,371.188,340.856,371.124,340.867,371.053 M340.914,370.748c-0.01,0.065-0.02,0.132-0.031,0.197
		C340.894,370.88,340.904,370.812,340.914,370.748 M340.961,370.445c-0.01,0.065-0.02,0.132-0.03,0.197
		C340.94,370.578,340.951,370.509,340.961,370.445 M341.006,370.141c-0.009,0.062-0.019,0.128-0.028,0.19
		C340.987,370.267,340.997,370.205,341.006,370.141 M341.051,369.836c-0.009,0.062-0.019,0.129-0.028,0.191
		C341.033,369.963,341.042,369.9,341.051,369.836 M341.096,369.526c-0.009,0.065-0.018,0.128-0.028,0.193
		C341.077,369.656,341.087,369.591,341.096,369.526 M341.139,369.224c-0.009,0.065-0.018,0.128-0.027,0.193
		C341.121,369.353,341.13,369.288,341.139,369.224 M341.183,368.907c-0.009,0.065-0.019,0.135-0.028,0.2
		C341.164,369.04,341.173,368.974,341.183,368.907 M341.231,368.55c-0.011,0.085-0.023,0.17-0.034,0.255
		C341.208,368.72,341.22,368.636,341.231,368.55 M341.318,367.886c-0.026,0.207-0.053,0.411-0.081,0.617
		C341.265,368.297,341.292,368.092,341.318,367.886 M341.357,367.575c-0.01,0.082-0.02,0.159-0.03,0.241
		C341.337,367.736,341.347,367.655,341.357,367.575 M341.395,367.272c-0.009,0.076-0.018,0.149-0.028,0.225
		C341.376,367.42,341.385,367.349,341.395,367.272 M341.432,366.964c-0.008,0.069-0.016,0.133-0.024,0.202
		C341.416,367.099,341.424,367.032,341.432,366.964 M341.467,366.663c-0.007,0.063-0.015,0.123-0.022,0.186
		C341.453,366.787,341.46,366.724,341.467,366.663 M341.503,366.352c-0.007,0.059-0.014,0.124-0.021,0.183
		C341.489,366.473,341.496,366.413,341.503,366.352 M341.538,366.042c-0.007,0.063-0.014,0.124-0.021,0.187
		C341.524,366.167,341.531,366.104,341.538,366.042 M341.571,365.731c-0.007,0.066-0.014,0.127-0.021,0.193
		C341.558,365.859,341.565,365.796,341.571,365.731 M341.604,365.428c-0.006,0.059-0.013,0.125-0.019,0.184
		C341.591,365.551,341.597,365.49,341.604,365.428 M341.636,365.116c-0.006,0.063-0.013,0.124-0.019,0.186
		C341.623,365.24,341.63,365.177,341.636,365.116 M341.667,364.805c-0.006,0.063-0.013,0.126-0.019,0.189
		C341.655,364.932,341.661,364.866,341.667,364.805 M341.698,364.49c-0.006,0.066-0.013,0.13-0.019,0.196
		C341.685,364.621,341.692,364.555,341.698,364.49 M341.728,364.179c-0.006,0.063-0.012,0.134-0.018,0.196
		C341.715,364.311,341.722,364.244,341.728,364.179 M341.76,363.823c-0.007,0.08-0.015,0.164-0.022,0.243
		C341.746,363.986,341.753,363.904,341.76,363.823 M341.82,363.133c-0.017,0.209-0.036,0.419-0.054,0.627
		C341.785,363.55,341.803,363.345,341.82,363.133 M341.846,362.825c-0.007,0.089-0.015,0.181-0.022,0.27
		C341.831,363.004,341.839,362.915,341.846,362.825 M341.871,362.514c-0.006,0.077-0.012,0.148-0.018,0.224
		C341.859,362.663,341.865,362.588,341.871,362.514 M341.894,362.206c-0.005,0.07-0.01,0.137-0.016,0.207
		C341.884,362.344,341.889,362.274,341.894,362.206 M341.917,361.896c-0.005,0.063-0.009,0.128-0.014,0.192
		C341.908,362.025,341.913,361.958,341.917,361.896 M341.94,361.587c-0.005,0.063-0.009,0.121-0.013,0.185
		C341.931,361.709,341.935,361.649,341.94,361.587 M341.961,361.274c-0.004,0.06-0.008,0.122-0.012,0.182
		C341.953,361.396,341.957,361.333,341.961,361.274 M341.981,360.961c-0.004,0.06-0.008,0.125-0.012,0.185
		C341.973,361.083,341.977,361.024,341.981,360.961 M342.001,360.646c-0.004,0.063-0.008,0.124-0.012,0.187
		C341.993,360.771,341.997,360.709,342.001,360.646 M342.02,360.336c-0.004,0.064-0.007,0.123-0.011,0.187
		C342.013,360.46,342.016,360.399,342.02,360.336 M342.038,360.021c-0.003,0.06-0.007,0.125-0.01,0.186
		C342.031,360.144,342.034,360.083,342.038,360.021 M342.055,359.704c-0.004,0.067-0.007,0.128-0.01,0.195
		C342.048,359.833,342.052,359.77,342.055,359.704 M342.071,359.383c-0.003,0.067-0.007,0.132-0.01,0.199
		C342.065,359.516,342.068,359.449,342.071,359.383 M342.087,359.056c-0.003,0.07-0.007,0.146-0.01,0.216
		C342.081,359.2,342.084,359.128,342.087,359.056 M342.119,358.333c-0.008,0.208-0.018,0.417-0.027,0.625
		C342.102,358.75,342.111,358.54,342.119,358.333 M342.132,358.017c-0.003,0.074-0.006,0.152-0.009,0.226
		C342.126,358.167,342.129,358.092,342.132,358.017 M342.143,357.706c-0.002,0.067-0.005,0.136-0.007,0.203
		C342.138,357.843,342.14,357.772,342.143,357.706 M342.154,357.386c-0.002,0.067-0.004,0.133-0.007,0.201
		C342.149,357.521,342.151,357.453,342.154,357.386 M342.163,357.076c-0.002,0.067-0.004,0.129-0.006,0.197
		C342.159,357.207,342.161,357.143,342.163,357.076 M342.172,356.764c-0.002,0.061-0.003,0.122-0.005,0.182
		C342.168,356.887,342.17,356.824,342.172,356.764 M342.18,356.452c-0.001,0.057-0.003,0.118-0.004,0.175
		C342.177,356.567,342.178,356.512,342.18,356.452 M342.187,356.132c-0.001,0.061-0.003,0.119-0.004,0.18
		C342.184,356.252,342.185,356.192,342.187,356.132 M342.193,355.82c-0.001,0.061-0.002,0.118-0.003,0.179
		C342.19,355.942,342.192,355.877,342.193,355.82 M342.198,355.506c-0.001,0.058-0.002,0.117-0.003,0.174
		C342.196,355.62,342.197,355.566,342.198,355.506 M342.202,355.194c-0.001,0.058-0.001,0.111-0.002,0.168
		C342.201,355.309,342.202,355.249,342.202,355.194 M342.206,354.872c-0.001,0.058-0.001,0.119-0.002,0.177
		C342.205,354.991,342.205,354.929,342.206,354.872 M342.208,354.55c0,0.061-0.001,0.123-0.001,0.184
		C342.208,354.674,342.208,354.61,342.208,354.55 M342.21,354.211c0,0.068,0,0.141-0.001,0.208
		C342.21,354.35,342.21,354.281,342.21,354.211 M342.211,353.789c0,0.105,0,0.21,0,0.315
		C342.211,354,342.211,353.894,342.211,353.789 M285.276,189.134c0.078,0.043,0.157,0.087,0.236,0.131l0.002-0.002
		C285.433,189.221,285.355,189.178,285.276,189.134 M285.035,189.001c0.055,0.03,0.108,0.06,0.163,0.09
		C285.144,189.061,285.09,189.031,285.035,189.001 M284.796,188.87c0.049,0.027,0.098,0.054,0.147,0.081
		C284.894,188.923,284.845,188.896,284.796,188.87 M284.492,188.704c0.031,0.017,0.063,0.034,0.094,0.051
		C284.555,188.738,284.523,188.721,284.492,188.704 M284.272,188.584c0.019,0.01,0.038,0.021,0.057,0.031
		C284.31,188.605,284.291,188.595,284.272,188.584"/>
	<path style="fill:#ACDA63;" d="M222.725,175.797c-2.865,0.239-5.699,0.587-8.498,1.041c2.543-0.412,5.115-0.737,7.713-0.972
		C222.202,175.842,222.463,175.819,222.725,175.797 M222.943,175.779c-0.018,0.001-0.045,0.004-0.063,0.005
		C222.901,175.783,222.922,175.781,222.943,175.779 M229.302,175.445c-0.026,0-0.056,0.001-0.082,0.002
		C229.247,175.446,229.275,175.445,229.302,175.445 M229.668,175.437c-0.052,0.001-0.109,0.002-0.161,0.003
		C229.561,175.439,229.615,175.438,229.668,175.437 M232.272,175.413L232.272,175.413c5.405,0.013,10.723,0.411,15.918,1.192l0,0
		c0.001,0.001,0.003,0.001,0.005,0.001c0.182,0.026,0.364,0.054,0.546,0.081c-0.183-0.028-0.367-0.055-0.551-0.083
		C242.995,175.823,237.677,175.426,232.272,175.413 M232,175.413h-0.273c-0.664,0.001-1.326,0.009-1.986,0.022
		c0.66-0.013,1.323-0.021,1.986-0.022l0,0H232L232,175.413L232,175.413"/>
	<path style="fill:#E9CD57;" d="M322.436,351.519v2.27c0,0.657-0.006,1.314-0.017,1.969l2.119-2.128L322.436,351.519
		 M322.418,283.656c0.012,0.657,0.017,1.311,0.017,1.97v2.268l2.102-2.11L322.418,283.656 M164.432,260.71l-24.969,25.073
		l24.966,25.069l8.491-8.527v-16.704c0-5.2,0.361-10.318,1.058-15.326L164.432,260.71 M181.042,244.032l-7.793,7.825l3.793,3.809
		C178.162,251.694,179.501,247.808,181.042,244.032 M248.191,176.605l-7.105,7.135c2.165-0.894,4.366-1.721,6.597-2.479
		c10.897,3.7,21.028,9.058,30.093,15.773l7.739-7.771c-0.08-0.042-0.159-0.085-0.238-0.129c-0.026-0.015-0.052-0.029-0.078-0.043
		c-0.055-0.03-0.108-0.06-0.163-0.09c-0.031-0.017-0.062-0.034-0.093-0.051c-0.049-0.027-0.098-0.054-0.147-0.081
		c-0.07-0.039-0.14-0.077-0.21-0.115c-0.031-0.017-0.063-0.034-0.094-0.051c-0.054-0.03-0.108-0.059-0.162-0.088
		c-0.019-0.01-0.038-0.021-0.057-0.031c-8.316-4.497-17.291-7.944-26.727-10.178l0.019-0.005c-0.984-0.236-1.981-0.433-2.975-0.639
		c-0.504-0.105-1.004-0.227-1.511-0.325c-1.436-0.277-2.881-0.527-4.336-0.75c-0.182-0.027-0.364-0.055-0.546-0.081
		C248.194,176.606,248.192,176.606,248.191,176.605 M221.941,175.866c-2.599,0.235-5.17,0.56-7.713,0.972
		c-50.299,8.158-89.188,50.36-92.243,102.196c0.195-3.299,0.537-6.559,1.022-9.774l7.629,7.661l24.97-25.073l-19.851-19.934
		c2.08-3.738,4.375-7.339,6.885-10.793l21.783,21.874l24.967-25.07l-21.709-21.799c3.454-2.5,7.067-4.784,10.805-6.862
		l19.723,19.805L223.175,184l-7.365-7.396C217.836,176.3,219.88,176.054,221.941,175.866"/>
	<path style="fill:#D3B94E;" d="M155.606,251.848l-24.97,25.073l8.826,8.862l24.969-25.073L155.606,251.848 M189.39,217.924
		l-24.967,25.07l8.826,8.863l7.793-7.825c3.225-7.906,7.342-15.351,12.227-22.214L189.39,217.924 M223.175,184l-24.965,25.068
		l2.921,2.933c7.948-8.842,17.31-16.395,27.724-22.297L223.175,184 M232.272,175.413l8.445,8.48
		c0.123-0.051,0.244-0.102,0.368-0.153l7.105-7.135C242.995,175.823,237.677,175.426,232.272,175.413 M232,175.413h-0.273
		C231.818,175.413,231.909,175.413,232,175.413"/>
	<path style="fill:#D3B94E;" d="M172.92,302.326l-8.491,8.527l8.491,8.527V302.326 M285.514,189.263L285.514,189.263l-7.739,7.771
		c3.366,2.493,6.586,5.176,9.643,8.028l8.9-8.937c-3.458-2.506-7.069-4.78-10.803-6.858c-0.001,0-0.002-0.001-0.003-0.002"/>
	<path style="fill:#D3B94E;" d="M321.36,221.121l-12.121,12.171c2.103,3.89,3.979,7.92,5.61,12.073l13.396-13.451
		C326.166,228.176,323.871,224.575,321.36,221.121"/>
	<path style="fill:#D3B94E;" d="M324.537,285.783l-2.102,2.11v17.708l10.919-10.964L324.537,285.783 M340.992,269.26l-7.629,7.661
		l8.817,8.854l0.028-0.028v-0.124C342.209,280.065,341.799,274.6,340.992,269.26"/>
	<path style="fill:#D3B94E;" d="M324.538,353.63l-2.119,2.128c-0.085,4.881-0.486,9.688-1.198,14.393
		c-0.274,1.848-0.595,3.68-0.96,5.497l13.102-13.156L324.538,353.63 M342.209,335.886l-8.854,8.891l8.825,8.862l0.029-0.029V335.886
		"/>
	<path style="fill:#D3B94E;" d="M320.269,263.772c1.296,6.442,2.03,13.088,2.15,19.883l2.119,2.127l8.817,8.854l8.854,8.891v-17.725
		l-0.028-0.029l-8.817-8.854L320.269,263.772 M232,175.413L232,175.413L232,175.413c-0.091,0-0.182,0-0.274,0
		c-0.663,0.001-1.326,0.009-1.986,0.022c-0.026,0-0.047,0.001-0.073,0.001c-0.053,0.001-0.107,0.002-0.161,0.003
		c-0.07,0.002-0.135,0.003-0.205,0.005c-0.027,0-0.055,0.001-0.082,0.002c-2.109,0.052-4.199,0.164-6.277,0.333
		c-0.021,0.002-0.042,0.003-0.063,0.005c-0.055,0.004-0.1,0.008-0.155,0.013c-0.262,0.022-0.523,0.045-0.784,0.069
		c-2.06,0.188-4.105,0.434-6.13,0.739l7.365,7.396l5.68,5.704c3.819-2.165,7.778-4.107,11.863-5.812l-8.445-8.48
		C232.182,175.413,232.091,175.413,232,175.413"/>
	<path style="fill:#D3B94E;" d="M322.436,333.812v17.707l2.102,2.111l8.825,8.861l7.629,7.661c0.807-5.34,1.216-10.804,1.216-16.361
		v-0.124l-0.029-0.029l-8.825-8.862L322.436,333.812 M178.487,189.263c-3.738,2.079-7.351,4.363-10.805,6.862l21.709,21.799
		l3.878,3.894c2.436-3.424,5.06-6.698,7.863-9.816l-2.921-2.933L178.487,189.263"/>
	<path style="fill:#E9CD57;" d="M177.045,383.743l-3.797,3.813l7.798,7.83C179.503,391.604,178.165,387.72,177.045,383.743
		 M164.428,328.561l-24.966,25.069l24.97,25.073l9.551-9.59c-0.706-5.009-1.063-10.125-1.063-15.321v-16.704L164.428,328.561
		 M130.645,294.637l-8.854,8.891v32.358l8.854,8.891l24.966-25.069L130.645,294.637 M121.791,285.746v0.057l0.028-0.029
		L121.791,285.746 M121.792,285.212c0,0.03,0,0.06,0,0.09C121.792,285.272,121.792,285.242,121.792,285.212 M121.794,284.887
		c0,0.026,0,0.049,0,0.075C121.793,284.937,121.793,284.911,121.794,284.887 M121.796,284.542c0,0.004,0,0.013,0,0.017
		C121.796,284.553,121.796,284.548,121.796,284.542 M121.8,284.175c0,0.015,0,0.033-0.001,0.048
		C121.8,284.207,121.8,284.191,121.8,284.175 M121.819,283.135v0.001V283.135 M121.954,279.572
		c-0.001,0.015-0.002,0.033-0.003,0.048C121.953,279.604,121.953,279.588,121.954,279.572 M121.975,279.2
		c-0.002,0.041-0.005,0.08-0.007,0.12C121.971,279.28,121.973,279.241,121.975,279.2"/>
	<polyline style="fill:#D3B94E;" points="121.819,285.774 121.791,285.803 121.791,303.528 130.645,294.637 121.819,285.774 	"/>
	<polyline style="fill:#D3B94E;" points="155.611,319.707 130.645,344.776 139.462,353.629 164.428,328.561 155.611,319.707 	"/>
	<path style="fill:#D3B94E;" d="M173.983,369.112l-9.551,9.59l8.817,8.853l3.797-3.813c-1.246-4.424-2.223-8.96-2.911-13.591
		C174.082,369.806,174.032,369.459,173.983,369.112"/>
	<path style="fill:#E9E9E9;" d="M248.848,462.71c-0.393,0.061-0.788,0.119-1.182,0.175c-0.151,0.021-0.302,0.043-0.453,0.064
		c-0.006,0.001-0.011,0.001-0.017,0.002c-0.003,0-0.006,0.001-0.008,0.001c-0.118,0.017-0.236,0.033-0.354,0.049
		C247.506,462.911,248.178,462.814,248.848,462.71 M257.563,461.013l-0.004,0.001L257.563,461.013L257.563,461.013"/>
	<path style="fill:#E9CD57;" d="M247.195,462.952c-0.003,0-0.005,0.001-0.008,0.001
		C247.189,462.953,247.192,462.953,247.195,462.952 M291.582,446.519c-0.064,0.041-0.127,0.082-0.191,0.123
		C291.453,446.602,291.52,446.559,291.582,446.519 M277.78,442.384c-0.41,0.303-0.822,0.604-1.236,0.901
		c-3.446,2.497-7.059,4.784-10.804,6.861c-5.715,3.189-11.763,5.875-18.059,8.013c-2.224-0.754-4.416-1.576-6.574-2.465l7.084,7.113
		c-0.326,0.049-0.652,0.097-0.978,0.143c0.151-0.021,0.302-0.043,0.453-0.064c0.395-0.056,0.789-0.114,1.182-0.175
		c1.222-0.188,2.439-0.397,3.648-0.625c0.116-0.021,0.232-0.045,0.349-0.067c1.563-0.3,3.118-0.625,4.659-0.992l0.042-0.009
		l0.015-0.003l0.004-0.001l-0.001-0.001c12.168-2.887,23.554-7.792,33.787-14.342c-1.906,1.219-3.853,2.379-5.835,3.481
		L277.78,442.384"/>
	<path style="fill:#D3B94E;" d="M314.846,394.045c-1.631,4.152-3.507,8.18-5.612,12.071l12.125,12.176
		c2.511-3.453,4.807-7.055,6.885-10.792L314.846,394.045 M142.64,221.121c-2.51,3.454-4.805,7.055-6.885,10.793l19.851,19.934
		l8.826,8.862l9.546,9.585c0.695-4.993,1.724-9.874,3.064-14.629l-3.793-3.809l-8.826-8.863L142.64,221.121"/>
	<path style="fill:#D3B94E;" d="M287.423,434.356c-3.056,2.854-6.276,5.535-9.643,8.028l7.734,7.767
		c1.982-1.103,3.929-2.262,5.835-3.481c0.015-0.01,0.027-0.017,0.042-0.027c0.064-0.041,0.127-0.082,0.191-0.123
		c0.739-0.476,1.47-0.958,2.196-1.451c0.855-0.581,1.702-1.174,2.539-1.78L287.423,434.356 M123.007,269.26
		c-0.486,3.215-0.828,6.476-1.022,9.774c-0.003,0.055-0.007,0.111-0.01,0.166c-0.002,0.041-0.005,0.08-0.007,0.12
		c-0.005,0.084-0.009,0.168-0.014,0.252c-0.001,0.016-0.002,0.032-0.003,0.048c-0.063,1.168-0.107,2.338-0.133,3.515v0.001
		c-0.008,0.347-0.014,0.69-0.018,1.038c0,0.016,0,0.032-0.001,0.048c-0.001,0.107-0.002,0.211-0.004,0.319c0,0.006,0,0.011,0,0.017
		c-0.001,0.111-0.002,0.217-0.003,0.328c0,0.024,0,0.05,0,0.075c0,0.082-0.001,0.169-0.001,0.251c0,0.03,0,0.06,0,0.09
		c0,0.107,0,0.212,0,0.32l0,0v0.124l0.028,0.028l8.826,8.863l24.966,25.07l8.817,8.854l8.492,8.527V319.38l-8.491-8.527
		l-24.966-25.069l-8.826-8.862L123.007,269.26"/>
	<path style="fill:#E9E9E9;" d="M178.487,450.15L178.487,450.15c8.895,4.959,18.559,8.719,28.761,11.054
		c-10.201-2.335-19.867-6.095-28.759-11.056 M159.34,436.653c2.669,2.342,5.452,4.557,8.341,6.635l0,0c0.001-0.002,0-0.002,0-0.003
		C164.793,441.208,162.009,438.995,159.34,436.653"/>
	<path style="fill:#E9CD57;" d="M198.211,430.345l-19.724,19.806c8.894,4.959,18.56,8.719,28.761,11.054
		c2.815,0.644,5.67,1.18,8.562,1.603l0,0l7.365-7.395L198.211,430.345 M164.423,396.417l-21.783,21.874
		c4.861,6.731,10.468,12.893,16.7,18.362c2.669,2.341,5.452,4.555,8.341,6.632c0,0,0.001,0.001,0.002,0.001l21.708-21.798
		L164.423,396.417 M130.637,362.491l-7.629,7.661c1.989,13.384,6.386,25.984,12.748,37.347l0,0l19.852-19.934L130.637,362.491
		 M121.791,353.609v0.058l0.029-0.029L121.791,353.609"/>
	<path style="fill:#D3B94E;" d="M121.82,353.638l-0.029,0.029v0.124c0,5.557,0.409,11.021,1.216,16.361l0,0l7.629-7.661
		L121.82,353.638"/>
	<path style="fill:#D3B94E;" d="M155.607,387.565l-19.852,19.934c2.08,3.737,4.375,7.339,6.885,10.792l0,0l21.783-21.874
		L155.607,387.565"/>
	<path style="fill:#D3B94E;" d="M189.391,421.489l-21.71,21.799c3.454,2.5,7.067,4.783,10.805,6.862l0,0l19.724-19.806
		L189.391,421.489"/>
	<path style="fill:#D3B94E;" d="M223.175,455.412l-7.365,7.395c5.196,0.782,10.511,1.179,15.917,1.192L223.175,455.412"/>
	<path style="fill:#E9CD57;" d="M233.658,463.987c-0.461,0.007-0.923,0.011-1.385,0.012l0,0
		C232.735,463.999,233.197,463.994,233.658,463.987 M233.89,463.984c-0.001,0-0.001,0-0.002,0
		C233.889,463.984,233.889,463.984,233.89,463.984"/>
	<path style="fill:#D3B94E;" d="M232.273,464c-0.091,0-0.181,0-0.272,0H232.273L232.273,464"/>
	<path style="fill:#D3B94E;" d="M121.791,335.886v17.724l0.029,0.029l8.817,8.853l24.97,25.074l8.816,8.853l24.968,25.071
		l8.819,8.856l24.964,25.067l8.552,8.587c0.091,0,0.182,0,0.273,0l0,0c0.091,0,0.182,0,0.272,0c0.462-0.001,0.924-0.005,1.385-0.012
		c0.077-0.001,0.153-0.002,0.23-0.003c0.001,0,0.001,0,0.002,0c4.382-0.075,8.7-0.407,12.942-0.981
		c0.118-0.016,0.236-0.033,0.354-0.049c0.003,0,0.005,0,0.008-0.001c0.006-0.001,0.012-0.001,0.017-0.002
		c0.327-0.046,0.653-0.093,0.978-0.143l-7.084-7.113c-3.954-1.628-7.792-3.48-11.493-5.544c-3.738-2.08-7.351-4.363-10.805-6.862
		c-9.634-6.931-18.098-15.384-25.042-24.997c-2.51-3.453-4.805-7.055-6.885-10.792c-2.183-3.898-4.134-7.942-5.836-12.113
		l-7.798-7.83l-8.817-8.853l-24.97-25.073l-8.817-8.853L121.791,335.886"/>
</g>
</svg>